<?xml version="1.0" encoding="utf-8"?>
<!-- Generator: Adobe Illustrator 16.0.0, SVG Export Plug-In . SVG Version: 6.00 Build 0)  -->
<!DOCTYPE svg PUBLIC "-//W3C//DTD SVG 1.1//EN" "http://www.w3.org/Graphics/SVG/1.1/DTD/svg11.dtd">
<svg version="1.1" id="Calque_1" xmlns="http://www.w3.org/2000/svg" xmlns:xlink="http://www.w3.org/1999/xlink" x="0px" y="0px"
	 width="635.333px" height="207.188px" viewBox="0 0 635.333 207.188" enable-background="new 0 0 635.333 207.188"
	 xml:space="preserve">
<g>
	<defs>
		<rect id="SVGID_1_" width="635.333" height="207.188"/>
	</defs>
	<clipPath id="SVGID_2_">
		<use xlink:href="#SVGID_1_"  overflow="visible"/>
	</clipPath>
	<path clip-path="url(#SVGID_2_)" d="M591.75,6.103v2.755c18.605,7.063,40.828,39.622,40.828,76.314
		c0,36.347-22.223,69.251-40.828,76.313v2.757c13.954-3.788,43.583-34.453,43.583-79.069C635.333,40.556,605.704,9.72,591.75,6.103
		 M530.77,67.258c0-8.271,4.994-16.539,20.672-16.539c14.814,0,23.944,11.37,14.125,26.701l-9.819,15.159
		C543.688,86.205,530.77,79.832,530.77,67.258 M557.125,93.441l20.844-29.458c-3.272-4.996-10.679-15.847-26.527-15.847
		c-18.262,0-27.391,10.507-27.391,23.083c0,29.457,45.477,26.7,45.477,48.922c0,9.994-8.439,16.539-18.604,16.539
		c-20.843,0-24.979-18.778-24.979-30.318V96.026h-2.237v40.998h2.237v-5.167c0,1.549,0-4.48,1.206-4.48
		c2.93,0,6.547,11.887,23.772,11.887c15.333,0,25.668-12.748,25.668-24.806C576.591,104.64,567.29,98.953,557.125,93.441
		 M508.203,6.103C494.25,9.72,464.62,40.556,464.62,85.173c0,44.616,29.63,75.281,43.583,79.069v-2.757
		c-18.604-7.062-40.826-39.966-40.826-76.313c0-36.692,22.222-69.251,40.826-76.314V6.103z M488.181,119.504
		c17.57,0,23.771,18.261,24.46,32.558h-50.473C464.234,135.179,471.986,119.504,488.181,119.504 M489.558,204.602
		c-20.844,0.173-28.079-22.222-28.079-42.549c0-2.41,0.172-4.995,0.346-7.408h61.842c-0.345-21.015-13.437-37.207-35.485-37.207
		c-22.567,0-37.556,17.915-37.556,44.615c0,26.701,14.988,45.135,38.933,45.135c16.537,0,31.524-15.334,32.731-29.804h-2.585
		C518.499,188.754,506.095,204.431,489.558,204.602 M424.789,185.826v-43.583c0-22.052-11.715-24.806-19.294-24.806
		c-16.884,0-25.841,25.493-29.974,49.611h-0.519v-24.806c0-22.052-11.712-24.806-19.293-24.806
		c-16.884,0-25.841,25.493-29.975,49.611h-0.518V119.16h-26.354v1.893c15.675,0,17.226,0,17.226,17.573v47.2
		c0,17.227-1.551,17.57-17.226,17.57v1.896h43.582v-1.896c-13.781,0-16.537-0.173-17.055-10.853
		c1.035-25.151,8.959-70.801,27.735-70.801c7.062,0,12.748,3.444,12.748,20.5v43.583c0,17.227-2.239,17.57-17.227,17.57v1.896
		h43.583v-1.896c-13.953,0-16.709-0.173-17.056-10.509c0.863-24.979,8.96-71.145,27.735-71.145c7.063,0,12.747,3.444,12.747,20.5
		v43.583c0,17.227-2.239,17.57-17.226,17.57v1.896h43.583v-1.896C425.305,203.396,424.789,203.053,424.789,185.826 M137.267,91.992
		c0-12.92,6.89-23.257,18.259-23.257c14.471,0,23.945,11.887,23.945,24.807c0,12.921-9.474,24.634-27.39,24.634h-14.814V91.992z
		 M152.081,120.071c17.916,0,29.629-11.025,29.629-26.529c0-15.503-11.713-27.046-26.185-27.046
		c-17.054,0-27.389,9.992-27.389,26.702v24.978h-16.366v1.896h16.366v64.771c0,17.226-1.034,17.57-17.227,17.57v1.895h43.583v-1.895
		c-15.676,0-17.226-0.345-17.226-17.57v-64.771H152.081z M62.333,204.135c-20.156,0-29.975-22.736-29.975-43.066
		c0-15.157,5.513-31.696,17.054-38.931c-7.063,11.196-6.202,25.151,3.791,34.282c11.196,10.162,27.907,9.647,38.759-1.035
		c0.172,1.896,0.345,3.791,0.345,5.684C92.307,181.052,82.488,204.135,62.333,204.135 M91.791,152.802
		c-11.024,11.887-27.391,10.853-37.037,2.239c-9.302-8.269-10.854-23.256-1.378-34.97c2.756-1.207,5.686-1.722,8.958-1.722
		C79.731,118.35,89.379,135.402,91.791,152.802 M62.333,116.454c-3.272,0-6.374,0.344-9.475,1.034
		c-18.26,4.306-30.492,20.671-30.492,43.58c0,26.703,16.71,44.964,39.966,44.964c23.255,0,39.965-18.261,39.965-44.964
		C102.299,134.37,85.588,116.454,62.333,116.454"/>
	<path clip-path="url(#SVGID_2_)" d="M412.05,53.058v0.172V53.058z M465.279,68.39V24.807C465.279,1.034,450.12,0,444.091,0
		c-17.915,0-27.216,25.496-31.523,49.612h-0.518V1.724h-26.356v1.895c15.676,0,17.228,0,17.228,17.57V68.39
		c0,17.225-1.552,17.572-17.228,17.572v1.895h43.583v-1.895c-13.782,0-16.537-0.175-17.053-10.854
		c1.031-25.152,9.129-70.801,28.939-70.801c5.857,0,14.987,1.722,14.987,20.5V68.39c0,17.225-2.239,17.572-17.227,17.572v1.895
		h43.583v-1.895C465.797,85.962,465.279,85.615,465.279,68.39 M337.117,87.684c-20.155,0-29.974-22.739-29.974-43.065
		c0-15.161,5.512-31.698,17.054-38.934c-7.063,11.199-6.202,25.151,3.789,34.282c11.197,10.163,27.908,9.646,38.761-1.033
		c0.171,1.894,0.345,3.788,0.345,5.685C367.092,64.6,357.273,87.684,337.117,87.684 M366.574,36.348
		c-11.024,11.887-27.391,10.854-37.036,2.24c-9.302-8.268-10.854-23.256-1.378-34.97c2.755-1.206,5.685-1.722,8.957-1.722
		C354.516,1.896,364.163,18.949,366.574,36.348 M337.117,0c-3.272,0-6.374,0.345-9.475,1.034
		c-18.261,4.307-30.491,20.672-30.491,43.584c0,26.699,16.711,44.96,39.966,44.96c23.256,0,39.966-18.261,39.966-44.96
		C377.083,17.916,360.373,0,337.117,0 M244.955,52.843v1.897c15.677,0,17.227,0,17.227,17.57v47.201
		c0,17.227-1.55,17.57-17.227,17.57v1.896h43.583v-1.896c-16.192,0-17.226-0.344-17.226-17.57V52.843H244.955z M265.627,28.038
		c4.824,0,8.785-3.963,8.785-8.787c0-4.822-3.961-8.785-8.785-8.785c-4.823,0-8.785,3.963-8.785,8.785
		C256.842,24.075,260.804,28.038,265.627,28.038 M212.572,54.74h32.386v-1.897h-32.386V29.76h-2.584
		c0,20.672-0.862,23.083-21.188,23.083v1.897h14.643v64.081c0,12.058,4.478,21.878,16.709,21.878
		c13.092,0,19.638-14.987,19.638-38.76h-2.584c0,17.398-4.651,35.659-15.159,35.659c-11.196,0-9.474-18.261-9.474-35.659V54.74z
		 M145.39,87.684c-20.156,0-29.974-22.739-29.974-43.065c0-15.161,5.512-31.698,17.054-38.934
		c-7.063,11.199-6.202,25.151,3.79,34.282c11.196,10.163,27.907,9.646,38.759-1.033c0.172,1.894,0.344,3.788,0.344,5.685
		C175.364,64.6,165.545,87.684,145.39,87.684 M174.847,36.348c-11.024,11.887-27.391,10.854-37.037,2.24
		c-9.302-8.268-10.853-23.256-1.377-34.97c2.755-1.206,5.685-1.722,8.957-1.722C162.789,1.896,172.436,18.949,174.847,36.348
		 M145.39,0c-3.272,0-6.374,0.345-9.474,1.034c-18.261,4.307-30.492,20.672-30.492,43.584c0,26.699,16.71,44.96,39.966,44.96
		c23.256,0,39.966-18.261,39.966-44.96C185.356,17.916,168.646,0,145.39,0 M26.356,53.058v0.172V53.058z M79.587,68.39V24.807
		C79.587,1.034,64.428,0,58.397,0C40.481,0,31.18,25.496,26.874,49.612h-0.518V1.724H0v1.895c15.676,0,17.226,0,17.226,17.57V68.39
		c0,17.225-1.55,17.572-17.226,17.572v1.895h43.583v-1.895c-13.781,0-16.537-0.175-17.055-10.854
		C27.563,49.957,35.659,4.307,55.47,4.307c5.856,0,14.987,1.722,14.987,20.5V68.39c0,17.225-2.241,17.572-17.228,17.572v1.895
		h43.583v-1.895C80.103,85.962,79.587,85.615,79.587,68.39"/>
</g>
</svg>
